<svg width="350" height="82" viewBox="0 0 350 82" fill="none" xmlns="http://www.w3.org/2000/svg">
<path d="M74.6228 6.48098L48.7173 18.675C48.2223 18.9222 48.1398 19.6637 48.6348 19.9109C51.6873 21.4763 60.845 24.6896 65.7951 32.5169C65.7951 32.5169 54.5749 21.8883 40.7146 21.8883C26.8543 21.8883 15.6341 32.5169 15.6341 32.5169C20.5842 24.6896 29.7419 21.4763 32.7945 19.9109C33.2895 19.6637 33.2895 18.9222 32.712 18.675L6.80642 6.48098C6.39392 6.3162 5.81641 6.64577 5.81641 7.14012V43.1454C5.81641 53.6916 11.179 63.5786 20.1717 69.1813C20.2542 69.2637 20.3367 69.2637 20.4192 69.3461C28.7519 74.4544 36.837 75.0311 40.7146 75.0311C44.8397 75.0311 52.6774 74.4544 61.01 69.3461C61.0925 69.2637 61.175 69.2637 61.2575 69.1813C70.2502 63.661 75.6128 53.6916 75.6128 43.1454V7.14012C75.5303 6.56337 75.0353 6.23381 74.6228 6.48098Z" fill="#89AAFF"/>
<path fill-rule="evenodd" clip-rule="evenodd" d="M15.0307 45.1869C15.8146 44.6263 16.9045 44.8072 17.4651 45.591C17.8598 46.1429 20.5964 49.7761 25.0682 49.6408C25.0766 49.6405 25.085 49.6403 25.0934 49.6402C29.377 49.5723 31.9807 46.1276 32.3644 45.591C32.9251 44.8072 34.015 44.6263 34.7988 45.1869C35.5826 45.7475 35.7636 46.8374 35.2029 47.6212C34.762 48.2377 31.2651 53.0261 25.1613 53.1293C18.7506 53.3166 15.0566 48.2224 14.6266 47.6212C14.0659 46.8374 14.2469 45.7475 15.0307 45.1869Z" fill="#001947"/>
<path fill-rule="evenodd" clip-rule="evenodd" d="M46.6294 45.1869C47.4132 44.6263 48.5031 44.8072 49.0637 45.591C49.4585 46.1429 52.195 49.7761 56.6669 49.6408C56.6752 49.6405 56.6836 49.6403 56.692 49.6402C60.9756 49.5723 63.5793 46.1276 63.9631 45.591C64.5237 44.8072 65.6136 44.6263 66.3974 45.1869C67.1813 45.7475 67.3622 46.8374 66.8016 47.6212C66.3606 48.2377 62.8637 53.0261 56.7599 53.1293C50.3493 53.3166 46.6552 48.2224 46.2252 47.6212C45.6646 46.8374 45.8455 45.7475 46.6294 45.1869Z" fill="#001947"/>
<path d="M35.7545 55.0101L40.3746 58.1409C40.7046 58.3881 41.1996 58.3881 41.4471 58.1409L46.0672 55.0101C46.6447 54.5981 46.3147 53.8566 45.4897 53.8566H36.2495C35.5895 53.8566 35.177 54.5981 35.7545 55.0101Z" fill="#001947"/>
<path d="M141.428 28.9985C139.389 26.9001 136.768 25.7926 133.565 25.7926C131.293 25.7926 129.255 26.2589 127.507 27.1332C125.76 28.0076 124.304 29.2316 123.255 30.8637C121.566 27.483 118.596 25.7926 114.344 25.7926C112.247 25.8509 110.5 26.2006 109.102 26.9001C107.704 27.5995 106.481 28.5905 105.491 29.8728V28.3568C105.491 27.1338 104.499 26.1423 103.276 26.1423H97.5693V53.9467C97.5693 55.1697 98.5608 56.1612 99.7838 56.1612H105.782V39.782C105.782 37.567 106.306 35.8183 107.355 34.5359C108.403 33.2536 109.859 32.5541 111.665 32.5541C115.159 32.5541 116.907 34.8274 116.907 39.3739V53.9467C116.907 55.1697 117.898 56.1612 119.121 56.1612H125.119V39.7237C125.119 37.5087 125.643 35.76 126.75 34.4776C127.799 33.1953 129.255 32.5541 131.06 32.5541C134.497 32.5541 136.244 34.8274 136.244 39.3739V53.9467C136.244 55.1697 137.236 56.1612 138.459 56.1612H144.457V39.6654C144.457 34.7108 143.408 31.1552 141.428 28.9985Z" fill="white"/>
<path d="M158.293 15.0091C157.361 14.1348 156.255 13.6685 154.915 13.6685C153.517 13.6685 152.41 14.1348 151.478 15.0091C150.546 15.8834 150.139 16.9909 150.139 18.2733C150.139 19.6139 150.546 20.7214 151.478 21.5958C152.41 22.5284 153.517 22.9364 154.915 22.9364C156.255 22.9364 157.361 22.5284 158.293 21.5958C159.167 20.7214 159.633 19.6139 159.633 18.2733C159.633 16.9909 159.167 15.8834 158.293 15.0091ZM150.779 26.1423V53.8884C150.779 55.1114 151.771 56.1029 152.994 56.1029H158.992V28.3568C158.992 27.1338 158.001 26.1423 156.778 26.1423H150.779Z" fill="white"/>
<path d="M191.683 29.0568C189.411 26.9001 186.557 25.7926 183.062 25.7926C180.849 25.7926 179.043 26.2006 177.587 26.9001C176.073 27.5995 174.85 28.5905 173.801 29.8728V28.3568C173.801 27.1338 172.81 26.1423 171.587 26.1423H165.88V53.8884C165.88 55.1114 166.871 56.1029 168.094 56.1029H174.093V40.7729C174.093 38.2081 174.675 36.168 175.84 34.7108C177.005 33.3119 178.636 32.5541 180.791 32.5541C184.81 32.5541 186.848 35.1771 186.848 40.3065V53.8884C186.848 55.1114 187.84 56.1029 189.063 56.1029H195.061V39.8402C195.061 34.8274 193.896 31.2717 191.683 29.0568Z" fill="white"/>
<path d="M208.099 46.1355H200.294C200.41 49.3414 201.808 51.8478 204.429 53.713C206.992 55.5783 210.37 56.4526 214.564 56.4526C217.243 56.4526 219.573 56.1029 221.611 55.2868C223.65 54.4708 225.223 53.3633 226.388 51.8478C227.552 50.3906 228.135 48.7002 228.135 46.7183C228.135 43.6873 227.028 41.5306 224.873 40.2483C222.718 38.9659 219.631 38.0916 215.612 37.6253C213.69 37.4504 212.351 37.2755 211.535 37.1007C210.72 36.9841 210.021 36.6926 209.555 36.3429C209.031 35.9932 208.798 35.4686 208.798 34.7691C208.798 33.8365 209.264 33.0204 210.195 32.4375C211.127 31.8546 212.409 31.5632 213.981 31.5632C215.612 31.5632 217.01 31.9712 218.059 32.6707C219.107 33.3702 219.748 34.3028 219.864 35.4103H227.669C227.436 32.3792 226.096 30.0477 223.592 28.299C221.087 26.6086 217.826 25.7343 213.748 25.676C211.186 25.676 208.972 26.084 207.05 26.9001C205.07 27.7161 203.555 28.8819 202.507 30.3974C201.459 31.9129 200.934 33.6033 200.934 35.5268C200.934 37.5087 201.459 39.0242 202.507 40.19C203.555 41.3558 204.953 42.2301 206.701 42.7547C208.448 43.3376 210.603 43.7456 213.282 44.0953C215.205 44.3285 216.602 44.5617 217.476 44.7365C218.292 44.9114 218.99 45.2028 219.456 45.5526C219.922 45.9606 220.155 46.5435 220.155 47.3012C220.155 48.3504 219.631 49.1665 218.641 49.7494C217.593 50.3323 216.253 50.5654 214.506 50.5654C212.642 50.5654 211.186 50.1574 210.021 49.3414C208.856 48.5253 208.215 47.4761 208.099 46.1355Z" fill="white"/>
<path d="M230.199 26.1423L239.485 54.5759C239.783 55.4867 240.632 56.1029 241.591 56.1029H248.721L254.08 38.0333L258.858 54.5054C259.133 55.4518 260 56.1029 260.985 56.1029H268.058L276.947 29.048C277.418 27.6158 276.351 26.1423 274.843 26.1423H269.514L263.399 47.3012L258.353 27.8021C258.1 26.8249 257.219 26.1423 256.209 26.1423H250.527L244.877 47.2429L239.335 27.7512C239.064 26.7991 238.195 26.1423 237.205 26.1423H230.199Z" fill="white"/>
<path d="M310.047 49.1665H309.115C308.416 49.1665 307.95 49.0499 307.659 48.7585C307.31 48.5253 307.193 48.0007 307.193 47.2429V36.6926C307.193 33.1953 306.028 30.4557 303.698 28.5905C301.369 26.7252 298.107 25.7926 293.913 25.7926C289.836 25.7926 286.633 26.6669 284.186 28.3573C281.74 30.0477 280.342 32.4375 280.109 35.4686H288.031C288.205 34.3611 288.788 33.4867 289.778 32.7873C290.71 32.1461 291.991 31.7963 293.506 31.7963C295.195 31.7963 296.534 32.2044 297.583 33.0204C298.573 33.8365 299.097 34.8857 299.097 36.2263V37.6835H293.156C288.671 37.6835 285.235 38.5579 282.905 40.3065C280.575 42.0552 279.41 44.5034 279.41 47.651C279.41 50.4488 280.4 52.6638 282.439 54.1793C284.478 55.6949 287.157 56.4526 290.535 56.4526C292.748 56.4526 294.67 56.0446 296.301 55.112C297.874 54.2376 299.214 52.9553 300.32 51.2066C300.204 54.4708 302.068 56.1029 305.854 56.1029H307.833C309.056 56.1029 310.047 55.1114 310.047 53.8884V49.1665ZM299.097 43.1627V43.7456C299.039 45.844 298.398 47.4761 297.175 48.7002C295.894 49.9242 294.204 50.5071 292.108 50.5071C290.71 50.5071 289.661 50.2157 288.846 49.5745C288.031 48.9916 287.681 48.1173 287.681 47.0681C287.681 45.844 288.147 44.9114 289.079 44.2119C290.011 43.5124 291.35 43.1627 293.098 43.1627H299.097Z" fill="white"/>
<path d="M338.794 27.7161C336.697 26.4338 334.367 25.7926 331.688 25.7926C329.591 25.7926 327.786 26.2006 326.213 27.0166C324.64 27.8327 323.359 28.9402 322.369 30.2808V28.3568C322.369 27.1338 321.377 26.1423 320.154 26.1423H314.389V65.5462C314.389 66.7692 315.381 67.7607 316.604 67.7607H322.602V52.3141C324.757 55.112 327.786 56.4526 331.63 56.4526C334.309 56.4526 336.697 55.8697 338.794 54.5874C340.891 53.305 342.522 51.5563 343.686 49.2248C344.851 46.9515 345.492 44.2702 345.492 41.1809C345.492 38.1499 344.851 35.4103 343.686 33.0787C342.522 30.7471 340.891 28.9985 338.794 27.7161ZM335.124 47.3595C333.727 48.9916 331.979 49.7494 329.766 49.7494C327.553 49.7494 325.747 48.9916 324.466 47.3595C323.126 45.7857 322.485 43.6873 322.485 41.0643C322.485 38.4996 323.126 36.4595 324.466 34.8857C325.747 33.3119 327.553 32.4958 329.766 32.4958C331.979 32.4958 333.727 33.3119 335.124 34.8857C336.464 36.4595 337.163 38.4996 337.163 41.0643C337.163 43.629 336.464 45.7274 335.124 47.3595Z" fill="white"/>
</svg>
